<mxfile host="app.diagrams.net" modified="2021-12-09T05:15:54.833Z" agent="5.0 (Windows NT 10.0; Win64; x64) AppleWebKit/537.36 (KHTML, like Gecko) Chrome/96.0.4664.93 Safari/537.36" etag="k7B6ZOS5pdYupB9xP7N4" version="15.9.4" type="github">
  <diagram id="IOUigpzPTEmCii7dXNa6" name="Page-1">
    <mxGraphModel dx="1278" dy="547" grid="1" gridSize="10" guides="1" tooltips="1" connect="1" arrows="1" fold="1" page="1" pageScale="1" pageWidth="827" pageHeight="1169" math="0" shadow="0">
      <root>
        <mxCell id="0" />
        <mxCell id="1" parent="0" />
        <mxCell id="bufI9x-oFZrQRKT5Dpb--1" value="Sinh Vien&lt;br&gt;" style="shape=umlActor;verticalLabelPosition=bottom;verticalAlign=top;html=1;outlineConnect=0;" parent="1" vertex="1">
          <mxGeometry x="190" y="70" width="30" height="60" as="geometry" />
        </mxCell>
        <mxCell id="bufI9x-oFZrQRKT5Dpb--2" value="" style="endArrow=none;html=1;rounded=0;" parent="1" edge="1">
          <mxGeometry width="50" height="50" relative="1" as="geometry">
            <mxPoint x="250" y="110" as="sourcePoint" />
            <mxPoint x="400" y="110" as="targetPoint" />
          </mxGeometry>
        </mxCell>
        <mxCell id="bufI9x-oFZrQRKT5Dpb--3" value="" style="endArrow=classic;html=1;rounded=0;" parent="1" edge="1">
          <mxGeometry width="50" height="50" relative="1" as="geometry">
            <mxPoint x="250" y="90" as="sourcePoint" />
            <mxPoint x="400" y="90" as="targetPoint" />
          </mxGeometry>
        </mxCell>
        <mxCell id="bufI9x-oFZrQRKT5Dpb--4" value="1.GuiYeuCauXemHocPhi()" style="text;html=1;align=center;verticalAlign=middle;resizable=0;points=[];autosize=1;strokeColor=none;fillColor=none;" parent="1" vertex="1">
          <mxGeometry x="240" y="70" width="160" height="20" as="geometry" />
        </mxCell>
        <mxCell id="bufI9x-oFZrQRKT5Dpb--5" value="" style="shape=umlBoundary;whiteSpace=wrap;html=1;" parent="1" vertex="1">
          <mxGeometry x="420" y="70" width="100" height="80" as="geometry" />
        </mxCell>
        <mxCell id="bufI9x-oFZrQRKT5Dpb--6" value="" style="endArrow=classic;html=1;rounded=0;" parent="1" edge="1">
          <mxGeometry width="50" height="50" relative="1" as="geometry">
            <mxPoint x="400" y="140" as="sourcePoint" />
            <mxPoint x="250" y="140" as="targetPoint" />
          </mxGeometry>
        </mxCell>
        <mxCell id="bufI9x-oFZrQRKT5Dpb--7" value="1.1.3 XuatThongTinHocPhi(n)" style="text;html=1;align=center;verticalAlign=middle;resizable=0;points=[];autosize=1;strokeColor=none;fillColor=none;" parent="1" vertex="1">
          <mxGeometry x="245" y="120" width="170" height="20" as="geometry" />
        </mxCell>
        <mxCell id="bufI9x-oFZrQRKT5Dpb--8" value=":XuatThongTinHocPhi UI" style="text;html=1;align=center;verticalAlign=middle;resizable=0;points=[];autosize=1;strokeColor=none;fillColor=none;" parent="1" vertex="1">
          <mxGeometry x="405" y="160" width="150" height="20" as="geometry" />
        </mxCell>
        <mxCell id="bufI9x-oFZrQRKT5Dpb--9" value="" style="endArrow=none;html=1;rounded=0;" parent="1" edge="1">
          <mxGeometry width="50" height="50" relative="1" as="geometry">
            <mxPoint x="320" y="280" as="sourcePoint" />
            <mxPoint x="405" y="190" as="targetPoint" />
          </mxGeometry>
        </mxCell>
        <mxCell id="bufI9x-oFZrQRKT5Dpb--10" value="" style="endArrow=none;html=1;rounded=0;" parent="1" edge="1">
          <mxGeometry width="50" height="50" relative="1" as="geometry">
            <mxPoint x="469.5" y="280" as="sourcePoint" />
            <mxPoint x="469.5" y="200" as="targetPoint" />
          </mxGeometry>
        </mxCell>
        <mxCell id="bufI9x-oFZrQRKT5Dpb--11" value="" style="endArrow=classic;html=1;rounded=0;" parent="1" edge="1">
          <mxGeometry width="50" height="50" relative="1" as="geometry">
            <mxPoint x="360" y="210" as="sourcePoint" />
            <mxPoint x="310" y="260" as="targetPoint" />
          </mxGeometry>
        </mxCell>
        <mxCell id="bufI9x-oFZrQRKT5Dpb--12" value="" style="endArrow=classic;html=1;rounded=0;" parent="1" edge="1">
          <mxGeometry width="50" height="50" relative="1" as="geometry">
            <mxPoint x="490" y="230" as="sourcePoint" />
            <mxPoint x="490" y="280" as="targetPoint" />
          </mxGeometry>
        </mxCell>
        <mxCell id="bufI9x-oFZrQRKT5Dpb--13" value="" style="ellipse;shape=umlEntity;whiteSpace=wrap;html=1;" parent="1" vertex="1">
          <mxGeometry x="220" y="260" width="80" height="80" as="geometry" />
        </mxCell>
        <mxCell id="bufI9x-oFZrQRKT5Dpb--14" value=":HocPhi" style="text;html=1;align=center;verticalAlign=middle;resizable=0;points=[];autosize=1;strokeColor=none;fillColor=none;" parent="1" vertex="1">
          <mxGeometry x="230" y="350" width="60" height="20" as="geometry" />
        </mxCell>
        <mxCell id="bufI9x-oFZrQRKT5Dpb--15" value="" style="ellipse;shape=umlControl;whiteSpace=wrap;html=1;" parent="1" vertex="1">
          <mxGeometry x="445" y="290" width="70" height="80" as="geometry" />
        </mxCell>
        <mxCell id="bufI9x-oFZrQRKT5Dpb--16" value="1.1.2 n = KetQua()" style="text;html=1;align=center;verticalAlign=middle;resizable=0;points=[];autosize=1;strokeColor=none;fillColor=none;" parent="1" vertex="1">
          <mxGeometry x="275" y="190" width="110" height="20" as="geometry" />
        </mxCell>
        <mxCell id="bufI9x-oFZrQRKT5Dpb--17" value=":controler" style="text;html=1;align=center;verticalAlign=middle;resizable=0;points=[];autosize=1;strokeColor=none;fillColor=none;" parent="1" vertex="1">
          <mxGeometry x="445" y="380" width="70" height="20" as="geometry" />
        </mxCell>
        <mxCell id="bufI9x-oFZrQRKT5Dpb--18" value="1.1.1TimThongHocPhi()" style="text;html=1;align=center;verticalAlign=middle;resizable=0;points=[];autosize=1;strokeColor=none;fillColor=none;rotation=0;" parent="1" vertex="1">
          <mxGeometry x="480" y="200" width="140" height="20" as="geometry" />
        </mxCell>
      </root>
    </mxGraphModel>
  </diagram>
</mxfile>
